<svg width="116" height="116" viewBox="0 0 116 116" fill="none" xmlns="http://www.w3.org/2000/svg">
<circle cx="58" cy="58" r="57.35" fill="#F4F6FF" stroke="#66C8FF" stroke-width="0.7" stroke-dasharray="10 10"/>
<path opacity="0.7" fill-rule="evenodd" clip-rule="evenodd" d="M72.688 41.99C72.796 42.1842 72.985 42.323 73.228 42.323C79.708 42.323 85 47.7614 85 54.4206V70.9023C85 77.5616 79.708 83 73.228 83H42.772C36.265 83 31 77.5616 31 70.9023V54.4206C31 47.7614 36.265 42.323 42.772 42.323C42.988 42.323 43.204 42.212 43.285 41.99L43.447 41.657C43.5401 41.4555 43.6356 41.2485 43.7326 41.0384C44.4233 39.5415 45.1875 37.8856 45.661 36.9123C46.903 34.4151 49.009 33.0277 51.628 33H64.345C66.964 33.0277 69.097 34.4151 70.339 36.9123C70.7643 37.7864 71.4122 39.1943 72.0366 40.5513C72.1655 40.8313 72.2933 41.1091 72.418 41.3796L72.688 41.99ZM70.717 52.647C70.717 54.0344 71.797 55.1442 73.147 55.1442C74.497 55.1442 75.604 54.0344 75.604 52.647C75.604 51.2597 74.497 50.1221 73.147 50.1221C71.797 50.1221 70.717 51.2597 70.717 52.647ZM53.33 56.946C54.599 55.6419 56.246 54.9482 58.001 54.9482C59.756 54.9482 61.403 55.6419 62.645 56.9183C63.887 58.1946 64.562 59.8872 64.562 61.6907C64.535 65.4088 61.619 68.4332 58.001 68.4332C56.246 68.4332 54.599 67.7396 53.357 66.4632C52.115 65.1869 51.44 63.4943 51.44 61.6907V61.663C51.413 59.9149 52.088 58.2224 53.33 56.946ZM65.4778 69.4038C63.5608 71.3738 60.9148 72.5947 57.9988 72.5947C55.1638 72.5947 52.5178 71.457 50.4928 69.4038C48.4948 67.3227 47.3878 64.6035 47.3878 61.6901C47.3608 58.8044 48.4678 56.0852 50.4658 54.0042C52.4908 51.9232 55.1638 50.7856 57.9988 50.7856C60.8338 50.7856 63.5068 51.9232 65.5048 53.9765C67.5028 56.0575 68.6098 58.8044 68.6098 61.6901C68.5828 64.7145 67.3948 67.4337 65.4778 69.4038Z" stroke="#223263" stroke-width="1.5"/>
</svg>
